HIERARCHY
ROOT hip
{
	OFFSET 0.000000 0.000000 0.000000 
	CHANNELS 6 Xposition Yposition Zposition Zrotation Xrotation Yrotation
	JOINT abdomen
	{
		OFFSET 0.000000 3.402643 0.000000 
		CHANNELS 3 Zrotation Xrotation Yrotation
		JOINT chest
		{
			OFFSET 0.000000 8.438565 -0.680529 
			CHANNELS 3 Zrotation Xrotation Yrotation
			JOINT neck
			{
				OFFSET 0.000000 9.885400 -0.272212 
				CHANNELS 3 Zrotation Xrotation Yrotation
				JOINT head
				{
					OFFSET 0.000000 3.130431 0.000000 
					CHANNELS 3 Zrotation Xrotation Yrotation
					End Site
					{
						OFFSET 0.000000 3.039250 0.000000 
					}
				}
			}
			JOINT lCollar
			{
				OFFSET 3.238290 6.669187 -0.816635 
				CHANNELS 3 Zrotation Xrotation Yrotation
				JOINT lShldr
				{
					OFFSET 2.515050 0.000000 0.000000 
					CHANNELS 3 Zrotation Xrotation Yrotation
					JOINT lForeArm
					{
						OFFSET 11.517700 0.000000 0.000000 
						CHANNELS 3 Zrotation Xrotation Yrotation
						JOINT lHand
						{
							OFFSET 9.026700 0.000000 0.000000 
							CHANNELS 3 Zrotation Xrotation Yrotation
							End Site
							{
								OFFSET 4.028470 0.000000 0.000000 
							}
						}
					}
				}
			}
			JOINT rCollar
			{
				OFFSET -3.238290 6.669187 -0.816635 
				CHANNELS 3 Zrotation Xrotation Yrotation
				JOINT rShldr
				{
					OFFSET -2.515050 0.000000 0.000000 
					CHANNELS 3 Zrotation Xrotation Yrotation
					JOINT rForeArm
					{
						OFFSET -11.517700 0.000000 0.000000 
						CHANNELS 3 Zrotation Xrotation Yrotation
						JOINT rHand
						{
							OFFSET -9.026700 0.000000 0.000000 
							CHANNELS 3 Zrotation Xrotation Yrotation
							End Site
							{
								OFFSET -4.028470 0.000000 0.000000 
							}
						}
					}
				}
			}
		}
	}
	JOINT lThigh
	{
		OFFSET 4.983750 -1.633274 1.361059 
		CHANNELS 3 Zrotation Xrotation Yrotation
		JOINT lShin
		{
			OFFSET -2.041588 -20.007561 0.000000 
			CHANNELS 3 Zrotation Xrotation Yrotation
			JOINT lFoot
			{
				OFFSET 0.000000 -19.190928 -1.224953 
				CHANNELS 3 Zrotation Xrotation Yrotation
				End Site
				{
					OFFSET 0.000000 -2.449906 4.627600 
				}
			}
		}
	}
	JOINT rThigh
	{
		OFFSET -4.983750 -1.633274 1.361059 
		CHANNELS 3 Zrotation Xrotation Yrotation
		JOINT rShin
		{
			OFFSET 2.041588 -20.007561 0.000000 
			CHANNELS 3 Zrotation Xrotation Yrotation
			JOINT rFoot
			{
				OFFSET 0.000000 -19.190928 -1.224953 
				CHANNELS 3 Zrotation Xrotation Yrotation
				End Site
				{
					OFFSET 0.000000 -2.449906 4.627600 
				}
			}
		}
	}
}
MOTION
Frames: 20
Frame Time: 0.100000
-0.122533 0.160340 0.015472 -99.802292 0.000003 -0.000030 8.491391 2.141816 1.193053 5.232522 -0.367447 -0.340661 -6.128266 5.839643 0.953517 4.285933 11.549242 -22.326487 -24.147959 11.226699 -20.739750 -48.055260 17.508734 -11.088707 -8.058602 -2.910977 -64.255585 -10.427320 4.462846 -0.000000 27.060501 4.661309 5.396099 46.647049 12.810046 -8.082089 -2.055283 -5.165246 42.406200 10.654114 20.742989 15.305779 9.056855 -16.463903 0.220500 5.216785 46.407059 -4.291467 5.580678 14.107144 0.848798 14.204697 -22.830389 -5.164655 5.364561 46.391727 -5.415615 -5.152123 17.084726 -0.154826 
-0.122533 0.160340 0.015472 -99.802292 0.000003 -0.000030 8.491179 2.155635 1.177801 5.231097 -0.362850 -0.333623 -6.154525 5.915730 0.960997 4.242476 11.437313 -22.341330 -24.150917 11.212892 -20.753876 -48.019886 17.494862 -11.139067 -8.026450 -2.981172 -64.145241 -10.392176 4.417082 0.000000 27.083920 4.658564 5.398120 46.635582 12.795208 -8.070203 -2.072124 -5.152988 42.307007 10.672935 20.577208 15.157075 9.046670 -16.490513 0.239582 5.245146 46.519272 -4.320029 5.580678 14.107144 0.848798 14.187737 -22.795315 -5.167818 5.340247 46.367687 -5.392808 -5.152123 17.084726 -0.154826 
-0.122533 0.160340 0.015472 -99.802292 0.000003 -0.000030 8.490970 2.169450 1.162553 5.229671 -0.358253 -0.326586 -6.180501 5.990906 0.968449 4.199002 11.325188 -22.356375 -24.153860 11.199041 -20.768002 -47.984440 17.480959 -11.189592 -7.993980 -3.051412 -64.034088 -10.357025 4.371312 0.000000 27.107693 4.655952 5.400105 46.624161 12.780453 -8.057665 -2.089064 -5.140580 42.207153 10.690907 20.410164 15.007998 9.036439 -16.517279 0.258688 5.273804 46.632103 -4.348915 5.580678 14.107144 0.848798 14.170854 -22.760363 -5.170939 5.316091 46.343788 -5.370146 -5.152123 17.084726 -0.154826 
-0.122533 0.160340 0.015472 -99.802292 0.000003 -0.000030 8.490765 2.183257 1.147309 5.228247 -0.353655 -0.319551 -6.206183 6.065181 0.975867 4.155512 11.212875 -22.371614 -24.156784 11.185145 -20.782118 -47.948933 17.467026 -11.240285 -7.961194 -3.121682 -63.922157 -10.321874 4.325539 0.000000 27.131804 4.653471 5.402053 46.612785 12.765785 -8.044493 -2.106100 -5.128023 42.106640 10.708017 20.241888 14.858577 9.026166 -16.544193 0.277817 5.302759 46.745537 -4.378122 5.580678 14.107144 0.848798 14.154049 -22.725544 -5.174017 5.292097 46.320023 -5.347631 -5.152123 17.084726 -0.154826 
-0.122533 0.160340 0.015472 -99.802292 0.000003 -0.000030 8.490567 2.197054 1.132071 5.226826 -0.349056 -0.312518 -6.231565 6.138557 0.983250 4.112015 11.100395 -22.387049 -24.159689 11.171206 -20.796223 -47.913342 17.453064 -11.291144 -7.928095 -3.191970 -63.809433 -10.286722 4.279769 0.000000 27.156244 4.651122 5.403961 46.601440 12.751206 -8.030704 -2.123223 -5.115322 42.005512 10.724249 20.072412 14.708841 9.015851 -16.571251 0.296967 5.332006 46.859539 -4.407649 5.580678 14.107144 0.848798 14.137332 -22.690865 -5.177052 5.268270 46.296406 -5.325267 -5.152123 17.084726 -0.154826 
-0.122533 0.160340 0.015472 -99.802292 0.000003 -0.000030 8.490377 2.210839 1.116840 5.225405 -0.344455 -0.305489 -6.256640 6.211044 0.990593 4.068511 10.987756 -22.402679 -24.162580 11.157228 -20.810310 -47.877674 17.439066 -11.342180 -7.894683 -3.262263 -63.695942 -10.251577 4.234004 0.000000 27.181000 4.648901 5.405825 46.590164 12.736710 -8.016313 -2.140431 -5.102478 41.903767 10.739587 19.901760 14.558824 9.005495 -16.598448 0.316134 5.361546 46.974098 -4.437495 5.580678 14.107144 0.848798 14.120704 -22.656338 -5.180044 5.244617 46.272949 -5.303061 -5.152123 17.084726 -0.154826 
-0.122533 0.160340 0.015472 -99.802292 0.000003 -0.000030 8.490197 2.224609 1.101619 5.223988 -0.339852 -0.298463 -6.281399 6.282643 0.997894 4.025008 10.874972 -22.418497 -24.165449 11.143215 -20.824392 -47.841946 17.425043 -11.393391 -7.860965 -3.332551 -63.581707 -10.216441 4.188252 0.000000 27.206064 4.646808 5.407641 46.578938 12.722302 -8.001337 -2.157717 -5.089494 41.801430 10.754019 19.729956 14.408544 8.995103 -16.625782 0.335317 5.391376 47.089188 -4.467658 5.580678 14.107144 0.848798 14.104168 -22.621962 -5.182991 5.221142 46.249660 -5.281014 -5.152123 17.084726 -0.154826 
-0.122533 0.160340 0.015472 -99.802292 0.000003 -0.000030 8.490028 2.238362 1.086407 5.222574 -0.335247 -0.291442 -6.305835 6.353362 1.005147 3.981511 10.762057 -22.434509 -24.168299 11.129163 -20.838457 -47.806122 17.410984 -11.444783 -7.826939 -3.402820 -63.466721 -10.181317 4.142516 0.000000 27.231421 4.644841 5.409408 46.567768 12.707981 -7.985793 -2.175077 -5.076373 41.698513 10.767529 19.557037 14.258038 8.984672 -16.653244 0.354512 5.421494 47.204792 -4.498137 5.580678 14.107144 0.848798 14.087729 -22.587749 -5.185891 5.197847 46.226536 -5.259131 -5.152123 17.084726 -0.154826 
-0.122533 0.160340 0.015472 -99.802292 0.000003 -0.000030 8.489874 2.252094 1.071206 5.221163 -0.330638 -0.284425 -6.329938 6.423206 1.012351 3.938022 10.649025 -22.450712 -24.171129 11.115079 -20.852499 -47.770229 17.396894 -11.496359 -7.792611 -3.473055 -63.351028 -10.146209 4.096799 0.000000 27.257055 4.642997 5.411121 46.556656 12.693743 -7.969697 -2.192506 -5.063117 41.595039 10.780105 19.383020 14.107325 8.974207 -16.680830 0.373718 5.451900 47.320889 -4.528930 5.580678 14.107144 0.848798 14.071392 -22.553707 -5.188748 5.174741 46.203613 -5.237419 -5.152123 17.084726 -0.154826 
-0.122533 0.160340 0.015472 -99.802292 0.000003 -0.000030 8.489733 2.265803 1.056018 5.219757 -0.326026 -0.277415 -6.353703 6.492181 1.019500 3.894548 10.535890 -22.467100 -24.173937 11.100962 -20.866520 -47.734249 17.382772 -11.548121 -7.757981 -3.543247 -63.234608 -10.111119 4.051107 0.000000 27.282965 4.641278 5.412778 46.545605 12.679592 -7.953063 -2.209999 -5.049730 41.491028 10.791735 19.207947 13.956438 8.963708 -16.708540 0.392932 5.482591 47.437469 -4.560038 5.580678 14.107144 0.848798 14.055160 -22.519838 -5.191558 5.151826 46.180882 -5.215878 -5.152123 17.084726 -0.154826 
-0.122533 0.160340 0.015472 -99.802292 0.000003 -0.000030 8.489614 2.279487 1.040844 5.218354 -0.321409 -0.270410 -6.377120 6.560289 1.026593 3.851094 10.422665 -22.483677 -24.176727 11.086815 -20.880516 -47.698189 17.368612 -11.600073 -7.723054 -3.613381 -63.117504 -10.076052 4.005445 0.000000 27.309124 4.639680 5.414376 46.534626 12.665528 -7.935912 -2.227551 -5.036215 41.386482 10.802404 19.031839 13.805402 8.953178 -16.736366 0.412152 5.513564 47.554504 -4.591455 5.580678 14.107144 0.848798 14.039038 -22.486162 -5.194322 5.129109 46.158344 -5.194515 -5.152123 17.084726 -0.154826 
-0.122533 0.160340 0.015472 -99.802292 0.000003 -0.000030 8.489511 2.293142 1.025686 5.216957 -0.316788 -0.263413 -6.400181 6.627538 1.033625 3.807662 10.309362 -22.500437 -24.179493 11.072641 -20.894491 -47.662048 17.354424 -11.652217 -7.687834 -3.683448 -62.999725 -10.041011 3.959817 0.000000 27.335535 4.638201 5.415911 46.523708 12.651547 -7.918259 -2.245157 -5.022573 41.281433 10.812105 18.854727 13.654240 8.942616 -16.764301 0.431375 5.544820 47.671970 -4.623184 5.580678 14.107144 0.848798 14.023026 -22.452673 -5.197038 5.106593 46.136021 -5.173333 -5.152123 17.084726 -0.154826 
-0.122533 0.160340 0.015472 -99.802292 0.000003 -0.000030 8.489429 2.306767 1.010544 5.215565 -0.312162 -0.256423 -6.422879 6.693930 1.040593 3.764259 10.195994 -22.517376 -24.182240 11.058443 -20.908434 -47.625816 17.340199 -11.704558 -7.652321 -3.753434 -62.881264 -10.005999 3.914226 0.000000 27.362175 4.636841 5.417381 46.512863 12.637654 -7.900118 -2.262814 -5.008809 41.175888 10.820827 18.676638 13.502979 8.932026 -16.792341 0.450598 5.576356 47.789860 -4.655221 5.580678 14.107144 0.848798 14.007136 -22.419390 -5.199707 5.084284 46.113922 -5.152338 -5.152123 17.084726 -0.154826 
-0.122533 0.160340 0.015472 -99.802292 0.000003 -0.000030 8.489371 2.320358 0.995420 5.214180 -0.307530 -0.249441 -6.445207 6.759477 1.047493 3.720889 10.082581 -22.534496 -24.184961 11.044222 -20.922352 -47.589500 17.325939 -11.757098 -7.616522 -3.823327 -62.762146 -9.971021 3.868680 -0.000000 27.389038 4.635598 5.418783 46.502087 12.623845 -7.881506 -2.280514 -4.994925 41.069878 10.828559 18.497604 13.351647 8.921410 -16.820488 0.469820 5.608169 47.908142 -4.687562 5.580678 14.107144 0.848798 13.991365 -22.386309 -5.202326 5.062185 46.092052 -5.131529 -5.152123 17.084726 -0.154826 
-0.122533 0.160340 0.015472 -99.802292 0.000003 -0.000030 8.489339 2.333913 0.980315 5.212801 -0.302892 -0.242469 -6.467156 6.824180 1.054323 3.677557 9.969128 -22.551792 -24.187660 11.029978 -20.936232 -47.553097 17.311646 -11.809842 -7.580438 -3.893116 -62.642384 -9.936078 3.823180 0.000000 27.416109 4.634470 5.420112 46.491383 12.610122 -7.862440 -2.298254 -4.980924 40.963409 10.835296 18.317657 13.200267 8.910767 -16.848730 0.489038 5.640257 48.026798 -4.720209 5.580678 14.107144 0.848798 13.975721 -22.353443 -5.204897 5.040304 46.070427 -5.110917 -5.152123 17.084726 -0.154826 
-0.122533 0.160340 0.015472 -99.802292 0.000003 -0.000030 8.489332 2.347429 0.965231 5.211429 -0.298248 -0.235505 -6.488718 6.888042 1.061077 3.634266 9.855652 -22.569265 -24.190338 11.015716 -20.950079 -47.516602 17.297316 -11.862790 -7.544074 -3.962788 -62.521996 -9.901175 3.777731 0.000000 27.443378 4.633456 5.421367 46.480766 12.596485 -7.842938 -2.316030 -4.966809 40.856499 10.841023 18.136826 13.048862 8.900099 -16.877064 0.508249 5.672618 48.145813 -4.753157 5.580678 14.107144 0.848798 13.960207 -22.320807 -5.207419 5.018642 46.049046 -5.090501 -5.152123 17.084726 -0.154826 
-0.122533 0.160340 0.015472 -99.802292 0.000003 -0.000030 8.489353 2.360904 0.950169 5.210064 -0.293596 -0.228552 -6.509884 6.951071 1.067753 3.591022 9.742167 -22.586914 -24.192984 11.001434 -20.963890 -47.480015 17.282949 -11.915951 -7.507433 -4.032330 -62.400986 -9.866317 3.732340 -0.000000 27.470839 4.632554 5.422544 46.470222 12.582932 -7.823014 -2.333836 -4.952584 40.749165 10.845737 17.955145 12.897458 8.889410 -16.905489 0.527451 5.705252 48.265167 -4.786407 5.580678 14.107144 0.848798 13.944824 -22.288397 -5.209894 4.997208 46.027927 -5.070288 -5.152123 17.084726 -0.154826 
-0.122533 0.160340 0.015472 -99.802292 0.000003 -0.000030 8.489407 2.374334 0.935130 5.208707 -0.288936 -0.221609 -6.530648 7.013277 1.074348 3.547829 9.628687 -22.604731 -24.195610 10.987142 -20.977665 -47.443344 17.268549 -11.969322 -7.470522 -4.101733 -62.279373 -9.831504 3.687010 -0.000000 27.498468 4.631762 5.423641 46.459770 12.569463 -7.802685 -2.351667 -4.938251 40.641434 10.849430 17.772638 12.746078 8.878698 -16.933994 0.546642 5.738154 48.384838 -4.819954 5.580678 14.107144 0.848798 13.929580 -22.256224 -5.212316 4.976001 46.007069 -5.050278 -5.152123 17.084726 -0.154826 
-0.122533 0.160340 0.015472 -99.802292 0.000003 -0.000030 8.489491 2.387718 0.920116 5.207359 -0.284269 -0.214678 -6.551003 7.074656 1.080858 3.504693 9.515224 -22.622715 -24.198212 10.972833 -20.991394 -47.406563 17.254114 -12.022909 -7.433342 -4.170981 -62.157181 -9.796741 3.641743 -0.000000 27.526258 4.631080 5.424654 46.449394 12.556079 -7.781967 -2.369520 -4.923812 40.533302 10.852098 17.589344 12.594746 8.867969 -16.962578 0.565819 5.771323 48.504807 -4.853798 5.580678 14.107144 0.848798 13.914478 -22.224302 -5.214686 4.955031 45.986485 -5.030479 -5.152123 17.084726 -0.154826 
-0.122533 0.160340 0.015472 -99.802292 0.000003 -0.000030 8.489610 2.401052 0.905128 5.206019 -0.279592 -0.207758 -6.570937 7.135222 1.087279 3.461616 9.401793 -22.640871 -24.200787 10.958514 -21.005081 -47.369701 17.239639 -12.076715 -7.395898 -4.240067 -62.034409 -9.762032 3.596548 0.000000 27.554201 4.630504 5.425579 46.439114 12.542780 -7.760878 -2.387390 -4.909274 40.424812 10.853730 17.405287 12.443482 8.857221 -16.991234 0.584980 5.804758 48.625053 -4.887936 5.580678 14.107144 0.848798 13.899521 -22.192629 -5.217008 4.934299 45.966190 -5.010893 -5.152123 17.084726 -0.154826 
